<svg width="24" height="24" fill="none" xmlns="http://www.w3.org/2000/svg">
  <path fill-rule="evenodd" clip-rule="evenodd" d="M14.2 7.02c.94-1.34 2.47-2.48 5.03-2.7v6.19c-.88 0-1.96.15-3.03.55a7.33 7.33 0 0 0-3.04 2.04.55.55 0 0 0-.06.6c.13.27.32.66.48 1.05.09.2.39.22.51.04a5.4 5.4 0 0 1 2.7-2.05c.85-.31 1.7-.43 2.4-.44a8.22 8.22 0 0 1-1.77 4.3 6.27 6.27 0 0 1-2.66 1.99.57.57 0 0 0-.4.52c0 .35-.02.75-.13 1.03-.04.1.08.31.18.3a7.2 7.2 0 0 0 4.37-2.7 10.05 10.05 0 0 0 2.22-6.3V3.51a1 1 0 0 0-1-1.01c-3.6.03-5.88 1.54-7.24 3.49-.3.44-.55.9-.76 1.35a7.94 7.94 0 0 0-2.45-2.97A9.86 9.86 0 0 0 4 2.5 1 1 0 0 0 3 3.5v7.94c0 3.54 1.42 5.86 3.27 7.26a9.23 9.23 0 0 0 5.47 1.8 1 1 0 0 0 .98-1.02c-.05-5.33-3.32-7.83-5.76-8.64a.24.24 0 0 0-.32.23v1.2c0 .21.13.4.32.48 1.66.74 3.64 2.49 3.95 5.92a7.47 7.47 0 0 1-3.58-1.4c-1.4-1.06-2.56-2.84-2.56-5.83v-7.1c1.14.15 2.54.58 3.73 1.47a6.01 6.01 0 0 1 2.55 4.4c.06.48.46.86.95.86.5-.01.88-.41.94-.9a7.02 7.02 0 0 1 1.27-3.15Z" fill="#B34747"/>
</svg>
